<?xml version="1.0" encoding="UTF-8" standalone="no"?>
<!DOCTYPE svg PUBLIC "-//W3C//DTD SVG 1.1//EN"
 "http://www.w3.org/Graphics/SVG/1.1/DTD/svg11.dtd">
<!-- Generated by graphviz version 2.40.1 (20161225.0304)
 -->
<!-- Title: %3 Pages: 1 -->
<svg width="906pt" height="865pt"
 viewBox="0.00 0.00 905.68 865.45" xmlns="http://www.w3.org/2000/svg" xmlns:xlink="http://www.w3.org/1999/xlink">
<g id="graph0" class="graph" transform="scale(1 1) rotate(0) translate(4 861.449)">
<title>%3</title>
<polygon fill="#ffffff" stroke="transparent" points="-4,4 -4,-861.449 901.6781,-861.449 901.6781,4 -4,4"/>
<!-- permit -->
<g id="node1" class="node">
<title>permit</title>
<text text-anchor="middle" x="401.7301" y="-234.373" font-family="Times,serif" font-size="14.00" fill="#000000">Obtenir le permit de conduire</text>
</g>
<!-- code -->
<g id="node2" class="node">
<title>code</title>
<text text-anchor="middle" x="534.5649" y="-292.3282" font-family="Times,serif" font-size="14.00" fill="#00ff00">Passer le code de la route</text>
</g>
<!-- permit&#45;&gt;code -->
<g id="edge1" class="edge">
<title>permit&#45;&gt;code</title>
<path fill="none" stroke="#000000" d="M420.7621,-246.8766C443.0262,-256.5903 480.1132,-272.7712 505.8728,-284.01"/>
<polygon fill="#000000" stroke="#000000" points="504.571,-287.2606 515.1362,-288.0516 507.3702,-280.8446 504.571,-287.2606"/>
</g>
<!-- Chréno -->
<g id="node3" class="node">
<title>Chréno</title>
<text text-anchor="middle" x="310.3587" y="-114.7602" font-family="Times,serif" font-size="14.00" fill="#000000">Chréno</text>
</g>
<!-- permit&#45;&gt;Chréno -->
<g id="edge2" class="edge">
<title>permit&#45;&gt;Chréno</title>
<path fill="none" stroke="#000000" d="M395.1589,-229.9707C380.0782,-210.2289 342.77,-161.3894 323.0477,-135.5712"/>
<polygon fill="#000000" stroke="#000000" points="325.7221,-133.3066 316.8703,-127.4845 320.1594,-137.5559 325.7221,-133.3066"/>
</g>
<!-- Circuit -->
<g id="node4" class="node">
<title>Circuit</title>
<text text-anchor="middle" x="265.177" y="-218.197" font-family="Times,serif" font-size="14.00" fill="#000000">Circuit</text>
</g>
<!-- permit&#45;&gt;Circuit -->
<g id="edge3" class="edge">
<title>permit&#45;&gt;Circuit</title>
<path fill="none" stroke="#000000" d="M331.4535,-230.2481C318.5144,-228.7153 305.6711,-227.1939 294.7846,-225.9043"/>
<polygon fill="#000000" stroke="#000000" points="294.9616,-222.4009 284.6193,-224.7002 294.1381,-229.3523 294.9616,-222.4009"/>
</g>
<!-- plaques -->
<g id="node5" class="node">
<title>plaques</title>
<text text-anchor="middle" x="584.0711" y="-142.643" font-family="Times,serif" font-size="14.00" fill="#ffa500">Apprendre les plaques</text>
</g>
<!-- code&#45;&gt;plaques -->
<g id="edge4" class="edge">
<title>code&#45;&gt;plaques</title>
<path fill="none" stroke="#000000" d="M537.3684,-288.0516C545.1971,-264.3812 567.4189,-197.1922 578.1406,-164.7744"/>
<polygon fill="#000000" stroke="#000000" points="581.4812,-165.8199 581.2984,-155.2266 574.8353,-163.6218 581.4812,-165.8199"/>
</g>
<!-- regles -->
<g id="node6" class="node">
<title>regles</title>
<text text-anchor="middle" x="676.0053" y="-324.1504" font-family="Times,serif" font-size="14.00" fill="#000000">Règles générales</text>
</g>
<!-- code&#45;&gt;regles -->
<g id="edge5" class="edge">
<title>code&#45;&gt;regles</title>
<path fill="none" stroke="#000000" d="M571.7267,-304.8891C589.349,-308.8539 610.5905,-313.6329 629.2909,-317.8403"/>
<polygon fill="#000000" stroke="#000000" points="628.5673,-321.2649 639.0917,-320.0454 630.1039,-314.4356 628.5673,-321.2649"/>
</g>
<!-- questions -->
<g id="node7" class="node">
<title>questions</title>
<text text-anchor="middle" x="483.4731" y="-442.9254" font-family="Times,serif" font-size="14.00" fill="#000000">Comprendre les questions sur le document</text>
</g>
<!-- code&#45;&gt;questions -->
<g id="edge6" class="edge">
<title>code&#45;&gt;questions</title>
<path fill="none" stroke="#000000" d="M531.6716,-305.0565C523.5922,-328.8711 500.6587,-396.4694 489.5936,-429.0848"/>
<polygon fill="#000000" stroke="#000000" points="486.233,-428.0964 486.3346,-438.6907 492.8619,-430.3453 486.233,-428.0964"/>
</g>
<!-- pdng -->
<g id="node8" class="node">
<title>pdng</title>
<text text-anchor="middle" x="718.6427" y="-140.6343" font-family="Times,serif" font-size="14.00" fill="#ff0000">Signaux de Danger</text>
</g>
<!-- plaques&#45;&gt;pdng -->
<g id="edge7" class="edge">
<title>plaques&#45;&gt;pdng</title>
<path fill="none" stroke="#000000" d="M647.0228,-145.9033C649.5046,-145.8663 651.9944,-145.8291 654.4784,-145.792"/>
<polygon fill="#000000" stroke="#000000" points="654.677,-149.2896 664.6237,-145.6406 654.5725,-142.2903 654.677,-149.2896"/>
</g>
<!-- pitr -->
<g id="node9" class="node">
<title>pitr</title>
<text text-anchor="middle" x="511.099" y="-4.2" font-family="Times,serif" font-size="14.00" fill="#ff0000">Signaux d&#39;Interdiction</text>
</g>
<!-- plaques&#45;&gt;pitr -->
<g id="edge8" class="edge">
<title>plaques&#45;&gt;pitr</title>
<path fill="none" stroke="#000000" d="M579.5064,-138.1828C567.7279,-115.8366 536.1317,-55.8923 520.3434,-25.9385"/>
<polygon fill="#000000" stroke="#000000" points="523.2356,-23.9194 515.4765,-16.705 517.0431,-27.1834 523.2356,-23.9194"/>
</g>
<!-- pobl -->
<g id="node10" class="node">
<title>pobl</title>
<text text-anchor="middle" x="707.646" y="-56.4082" font-family="Times,serif" font-size="14.00" fill="#0000ff">Signaux d&#39;Obligation</text>
</g>
<!-- plaques&#45;&gt;pobl -->
<g id="edge9" class="edge">
<title>plaques&#45;&gt;pobl</title>
<path fill="none" stroke="#000000" d="M596.3718,-138.2592C617.5603,-123.4731 661.1559,-93.0506 687.0428,-74.9858"/>
<polygon fill="#000000" stroke="#000000" points="689.1974,-77.7503 695.3951,-69.1573 685.1915,-72.0098 689.1974,-77.7503"/>
</g>
<!-- pind -->
<g id="node11" class="node">
<title>pind</title>
<text text-anchor="middle" x="641.1976" y="-6.8803" font-family="Times,serif" font-size="14.00" fill="#0000ff">Signaux d&#39;Indication</text>
</g>
<!-- plaques&#45;&gt;pind -->
<g id="edge10" class="edge">
<title>plaques&#45;&gt;pind</title>
<path fill="none" stroke="#000000" d="M587.6447,-138.3504C596.7817,-116.636 621.1524,-58.7182 633.6206,-29.0871"/>
<polygon fill="#000000" stroke="#000000" points="636.9729,-30.1444 637.6254,-19.5697 630.5209,-27.4294 636.9729,-30.1444"/>
</g>
<!-- potr -->
<g id="node12" class="node">
<title>potr</title>
<text text-anchor="middle" x="464.8334" y="-69.0735" font-family="Times,serif" font-size="14.00" fill="#000000">Signaux divers</text>
</g>
<!-- plaques&#45;&gt;potr -->
<g id="edge11" class="edge">
<title>plaques&#45;&gt;potr</title>
<path fill="none" stroke="#000000" d="M570.3931,-138.4036C549.998,-125.82 511.4032,-102.007 486.9598,-86.9255"/>
<polygon fill="#000000" stroke="#000000" points="488.7003,-83.8868 478.352,-81.6145 485.0246,-89.8441 488.7003,-83.8868"/>
</g>
<!-- Distances de frainage -->
<g id="node13" class="node">
<title>Distances de frainage</title>
<text text-anchor="middle" x="817.669" y="-280.3932" font-family="Times,serif" font-size="14.00" fill="#000000">Distances de frainage</text>
</g>
<!-- regles&#45;&gt;Distances de frainage -->
<g id="edge12" class="edge">
<title>regles&#45;&gt;Distances de frainage</title>
<path fill="none" stroke="#000000" d="M702.9846,-320.017C725.1395,-313.1738 756.731,-303.4158 781.1492,-295.8735"/>
<polygon fill="#000000" stroke="#000000" points="782.2685,-299.191 790.7901,-292.8956 780.2026,-292.5028 782.2685,-299.191"/>
</g>
<!-- Caractéristiques d&#39;un véhicule léger -->
<g id="node14" class="node">
<title>Caractéristiques d&#39;un véhicule léger</title>
<text text-anchor="middle" x="795.357" y="-392.3739" font-family="Times,serif" font-size="14.00" fill="#000000">Caractéristiques d&#39;un véhicule léger</text>
</g>
<!-- regles&#45;&gt;Caractéristiques d&#39;un véhicule léger -->
<g id="edge13" class="edge">
<title>regles&#45;&gt;Caractéristiques d&#39;un véhicule léger</title>
<path fill="none" stroke="#000000" d="M690.6402,-336.716C710.8626,-348.2754 747.5827,-369.2653 771.7223,-383.0639"/>
<polygon fill="#000000" stroke="#000000" points="770.1837,-386.2159 780.6024,-388.1399 773.6576,-380.1386 770.1837,-386.2159"/>
</g>
<!-- doublage -->
<g id="node15" class="node">
<title>doublage</title>
<text text-anchor="middle" x="340.7582" y="-497.6825" font-family="Times,serif" font-size="14.00" fill="#000000">Comment doubler</text>
</g>
<!-- questions&#45;&gt;doublage -->
<g id="edge14" class="edge">
<title>questions&#45;&gt;doublage</title>
<path fill="none" stroke="#000000" d="M461.7977,-455.4418C437.9076,-464.608 399.2682,-479.4333 372.0853,-489.8629"/>
<polygon fill="#000000" stroke="#000000" points="370.7201,-486.6378 362.6375,-493.4878 373.2277,-493.1733 370.7201,-486.6378"/>
</g>
<!-- Stationnement -->
<g id="node16" class="node">
<title>Stationnement</title>
<text text-anchor="middle" x="563.4037" y="-572.5791" font-family="Times,serif" font-size="14.00" fill="#000000">Stationnement</text>
</g>
<!-- questions&#45;&gt;Stationnement -->
<g id="edge15" class="edge">
<title>questions&#45;&gt;Stationnement</title>
<path fill="none" stroke="#000000" d="M488.7175,-455.6324C501.7041,-476.6975 535.5555,-531.6072 552.8703,-559.6932"/>
<polygon fill="#000000" stroke="#000000" points="550.0167,-561.7338 558.2439,-568.4094 555.9753,-558.0603 550.0167,-561.7338"/>
</g>
<!-- Quand doubler -->
<g id="node17" class="node">
<title>Quand doubler</title>
<text text-anchor="middle" x="198.4886" y="-473.1172" font-family="Times,serif" font-size="14.00" fill="#000000">Quand doubler</text>
</g>
<!-- doublage&#45;&gt;Quand doubler -->
<g id="edge16" class="edge">
<title>doublage&#45;&gt;Quand doubler</title>
<path fill="none" stroke="#000000" d="M292.5922,-493.5658C279.1022,-491.2365 264.3777,-488.6941 250.6667,-486.3267"/>
<polygon fill="#000000" stroke="#000000" points="250.8664,-482.8094 240.4167,-484.5568 249.6753,-489.7074 250.8664,-482.8094"/>
</g>
<!-- Où doubler -->
<g id="node18" class="node">
<title>Où doubler</title>
<text text-anchor="middle" x="275.3276" y="-620.9705" font-family="Times,serif" font-size="14.00" fill="#000000">Où doubler</text>
</g>
<!-- doublage&#45;&gt;Où doubler -->
<g id="edge17" class="edge">
<title>doublage&#45;&gt;Où doubler</title>
<path fill="none" stroke="#000000" d="M336.2609,-510.3566C325.6618,-530.328 298.937,-580.6844 284.6594,-607.587"/>
<polygon fill="#000000" stroke="#000000" points="281.4527,-606.1632 279.8564,-616.6371 287.6359,-609.4448 281.4527,-606.1632"/>
</g>
<!-- Quand stationer -->
<g id="node21" class="node">
<title>Quand stationer</title>
<text text-anchor="middle" x="690.6815" y="-639.9175" font-family="Times,serif" font-size="14.00" fill="#000000">Quand stationer</text>
</g>
<!-- Stationnement&#45;&gt;Quand stationer -->
<g id="edge20" class="edge">
<title>Stationnement&#45;&gt;Quand stationer</title>
<path fill="none" stroke="#000000" d="M579.2662,-585.1714C600.8931,-596.6135 639.8679,-617.2337 665.5088,-630.7995"/>
<polygon fill="#000000" stroke="#000000" points="664.1431,-634.0366 674.6191,-635.6194 667.4167,-627.8492 664.1431,-634.0366"/>
</g>
<!-- Où stationer -->
<g id="node22" class="node">
<title>Où stationer</title>
<text text-anchor="middle" x="538.6466" y="-709.8046" font-family="Times,serif" font-size="14.00" fill="#000000">Où stationer</text>
</g>
<!-- Stationnement&#45;&gt;Où stationer -->
<g id="edge21" class="edge">
<title>Stationnement&#45;&gt;Où stationer</title>
<path fill="none" stroke="#000000" d="M561.8551,-585.3632C557.9127,-607.2154 547.4262,-665.3406 542.0017,-695.4081"/>
<polygon fill="#000000" stroke="#000000" points="538.5258,-694.9612 540.1947,-705.4238 545.4146,-696.2041 538.5258,-694.9612"/>
</g>
<!-- Quand ne pas doubler -->
<g id="node19" class="node">
<title>Quand ne pas doubler</title>
<text text-anchor="middle" x="61.2304" y="-476.306" font-family="Times,serif" font-size="14.00" fill="#000000">Quand ne pas doubler</text>
</g>
<!-- Quand doubler&#45;&gt;Quand ne pas doubler -->
<g id="edge18" class="edge">
<title>Quand doubler&#45;&gt;Quand ne pas doubler</title>
<path fill="none" stroke="#000000" d="M156.5608,-478.2913C149.0219,-478.4664 140.9737,-478.6534 132.8695,-478.8417"/>
<polygon fill="#000000" stroke="#000000" points="132.5242,-475.3487 122.6082,-479.0801 132.6868,-482.3468 132.5242,-475.3487"/>
</g>
<!-- Où ne pas doubler -->
<g id="node20" class="node">
<title>Où ne pas doubler</title>
<text text-anchor="middle" x="182.12" y="-719.2706" font-family="Times,serif" font-size="14.00" fill="#000000">Où ne pas doubler</text>
</g>
<!-- Où doubler&#45;&gt;Où ne pas doubler -->
<g id="edge19" class="edge">
<title>Où doubler&#45;&gt;Où ne pas doubler</title>
<path fill="none" stroke="#000000" d="M267.3808,-633.5515C251.8348,-649.9468 217.1758,-686.4994 197.1631,-707.6055"/>
<polygon fill="#000000" stroke="#000000" points="194.3875,-705.446 190.0467,-715.1108 199.4671,-710.2624 194.3875,-705.446"/>
</g>
<!-- Quand ne pas stationer -->
<g id="node23" class="node">
<title>Quand ne pas stationer</title>
<text text-anchor="middle" x="794.6533" y="-728.9342" font-family="Times,serif" font-size="14.00" fill="#000000">Quand ne pas stationer</text>
</g>
<!-- Quand stationer&#45;&gt;Quand ne pas stationer -->
<g id="edge22" class="edge">
<title>Quand stationer&#45;&gt;Quand ne pas stationer</title>
<path fill="none" stroke="#000000" d="M700.6507,-652.6528C718.3178,-667.7786 755.3222,-699.4604 777.2653,-718.2472"/>
<polygon fill="#000000" stroke="#000000" points="774.9935,-720.9097 784.866,-724.7547 779.546,-715.5923 774.9935,-720.9097"/>
</g>
<!-- Où ne pas stationer -->
<g id="node24" class="node">
<title>Où ne pas stationer</title>
<text text-anchor="middle" x="547.4108" y="-844.849" font-family="Times,serif" font-size="14.00" fill="#000000">Où ne pas stationer</text>
</g>
<!-- Où stationer&#45;&gt;Où ne pas stationer -->
<g id="edge23" class="edge">
<title>Où stationer&#45;&gt;Où ne pas stationer</title>
<path fill="none" stroke="#000000" d="M539.1949,-722.4523C540.5843,-743.8624 544.2701,-800.6552 546.1976,-830.3554"/>
<polygon fill="#000000" stroke="#000000" points="542.7224,-830.8522 546.8628,-840.6046 549.7077,-830.3988 542.7224,-830.8522"/>
</g>
</g>
</svg>
