<?xml version="1.0" encoding="UTF-8" standalone="no"?>
<!DOCTYPE svg PUBLIC "-//W3C//DTD SVG 1.1//EN"
 "http://www.w3.org/Graphics/SVG/1.1/DTD/svg11.dtd">
<!-- Generated by graphviz version 2.40.1 (20161225.0304)
 -->
<!-- Title: %3 Pages: 1 -->
<svg width="1109pt" height="503pt"
 viewBox="0.00 0.00 1109.08 502.89" xmlns="http://www.w3.org/2000/svg" xmlns:xlink="http://www.w3.org/1999/xlink">
<g id="graph0" class="graph" transform="scale(1 1) rotate(0) translate(4 498.8903)">
<title>%3</title>
<polygon fill="#ffffff" stroke="transparent" points="-4,4 -4,-498.8903 1105.0839,-498.8903 1105.0839,4 -4,4"/>
<!-- permit -->
<g id="node1" class="node">
<title>permit</title>
<text text-anchor="middle" x="357.7934" y="-232.9431" font-family="Times,serif" font-size="14.00" fill="#000000">Obtenir le permit de conduire</text>
</g>
<!-- code -->
<g id="node2" class="node">
<title>code</title>
<text text-anchor="middle" x="817.367" y="-236.5887" font-family="Times,serif" font-size="14.00" fill="#00ff00">Passer le code de la route</text>
</g>
<!-- permit&#45;&gt;code -->
<g id="edge1" class="edge">
<title>permit&#45;&gt;code</title>
<path fill="none" stroke="#000000" d="M440.4867,-237.7991C524.2133,-238.4633 652.8878,-239.484 736.0996,-240.144"/>
<polygon fill="#000000" stroke="#000000" points="736.2403,-243.6452 746.2678,-240.2247 736.2959,-236.6454 736.2403,-243.6452"/>
</g>
<!-- Chréno -->
<g id="node3" class="node">
<title>Chréno</title>
<text text-anchor="middle" x="21.0882" y="-472.8483" font-family="Times,serif" font-size="14.00" fill="#000000">Chréno</text>
</g>
<!-- permit&#45;&gt;Chréno -->
<g id="edge2" class="edge">
<title>permit&#45;&gt;Chréno</title>
<path fill="none" stroke="#000000" d="M345.8099,-245.6815C295.8988,-281.2435 104.2055,-417.8265 41.2503,-462.6827"/>
<polygon fill="#000000" stroke="#000000" points="39.0413,-459.959 32.9281,-468.6123 43.1033,-465.6599 39.0413,-459.959"/>
</g>
<!-- Circuit -->
<g id="node4" class="node">
<title>Circuit</title>
<text text-anchor="middle" x="78.2628" y="-4.2" font-family="Times,serif" font-size="14.00" fill="#000000">Circuit</text>
</g>
<!-- permit&#45;&gt;Circuit -->
<g id="edge3" class="edge">
<title>permit&#45;&gt;Circuit</title>
<path fill="none" stroke="#000000" d="M347.5132,-228.7308C305.993,-194.7543 150.3334,-67.3762 96.6217,-23.4233"/>
<polygon fill="#000000" stroke="#000000" points="98.5921,-20.5132 88.6364,-16.8889 94.159,-25.9306 98.5921,-20.5132"/>
</g>
<!-- plaques -->
<g id="node5" class="node">
<title>plaques</title>
<text text-anchor="middle" x="736.1395" y="-78.2167" font-family="Times,serif" font-size="14.00" fill="#ffa500">Apprendre les plaques</text>
</g>
<!-- code&#45;&gt;plaques -->
<g id="edge4" class="edge">
<title>code&#45;&gt;plaques</title>
<path fill="none" stroke="#000000" d="M812.9999,-232.2739C800.2183,-207.3534 762.6916,-134.1863 745.2475,-100.175"/>
<polygon fill="#000000" stroke="#000000" points="748.2062,-98.2742 740.5282,-90.9736 741.9776,-101.4688 748.2062,-98.2742"/>
</g>
<!-- regles -->
<g id="node6" class="node">
<title>regles</title>
<text text-anchor="middle" x="980.9059" y="-179.8527" font-family="Times,serif" font-size="14.00" fill="#000000">Règles générales</text>
</g>
<!-- code&#45;&gt;regles -->
<g id="edge5" class="edge">
<title>code&#45;&gt;regles</title>
<path fill="none" stroke="#000000" d="M841.4977,-232.4171C869.4781,-222.71 915.7788,-206.647 947.2777,-195.7192"/>
<polygon fill="#000000" stroke="#000000" points="948.6421,-198.9506 956.9426,-192.3662 946.3478,-192.3373 948.6421,-198.9506"/>
</g>
<!-- questions -->
<g id="node7" class="node">
<title>questions</title>
<text text-anchor="middle" x="742.3406" y="-391.7783" font-family="Times,serif" font-size="14.00" fill="#000000">Comprendre les questions sur le document</text>
</g>
<!-- code&#45;&gt;questions -->
<g id="edge6" class="edge">
<title>code&#45;&gt;questions</title>
<path fill="none" stroke="#000000" d="M813.3333,-249.1324C801.5275,-273.5522 766.8657,-345.2489 750.7533,-378.5768"/>
<polygon fill="#000000" stroke="#000000" points="747.5958,-377.0668 746.3943,-387.5933 753.898,-380.1137 747.5958,-377.0668"/>
</g>
<!-- pdng -->
<g id="node8" class="node">
<title>pdng</title>
<text text-anchor="middle" x="713.08" y="-128.0725" font-family="Times,serif" font-size="14.00" fill="#ff0000">Signaux de Danger</text>
</g>
<!-- plaques&#45;&gt;pdng -->
<g id="edge7" class="edge">
<title>plaques&#45;&gt;pdng</title>
<path fill="none" stroke="#000000" d="M732.1228,-91.101C729.1469,-97.535 724.9882,-106.5263 721.3161,-114.4656"/>
<polygon fill="#000000" stroke="#000000" points="718.0719,-113.1423 717.0506,-123.6878 724.4253,-116.0809 718.0719,-113.1423"/>
</g>
<!-- pitr -->
<g id="node9" class="node">
<title>pitr</title>
<text text-anchor="middle" x="602.2506" y="-95.6121" font-family="Times,serif" font-size="14.00" fill="#ff0000">Signaux d&#39;Interdiction</text>
</g>
<!-- plaques&#45;&gt;pitr -->
<g id="edge8" class="edge">
<title>plaques&#45;&gt;pitr</title>
<path fill="none" stroke="#000000" d="M673.5072,-90.5542C673.3455,-90.5752 673.1839,-90.5962 673.0221,-90.6172"/>
<polygon fill="#000000" stroke="#000000" points="675.2038,-86.8042 665.7382,-91.5636 676.1058,-93.7459 675.2038,-86.8042"/>
</g>
<!-- pobl -->
<g id="node10" class="node">
<title>pobl</title>
<text text-anchor="middle" x="665.2219" y="-24.4121" font-family="Times,serif" font-size="14.00" fill="#0000ff">Signaux d&#39;Obligation</text>
</g>
<!-- plaques&#45;&gt;pobl -->
<g id="edge9" class="edge">
<title>plaques&#45;&gt;pobl</title>
<path fill="none" stroke="#000000" d="M725.0586,-74.0098C714.2969,-65.845 697.7288,-53.2749 684.7529,-43.4302"/>
<polygon fill="#000000" stroke="#000000" points="686.5411,-40.3936 676.459,-37.1376 682.3101,-45.9702 686.5411,-40.3936"/>
</g>
<!-- pind -->
<g id="node11" class="node">
<title>pind</title>
<text text-anchor="middle" x="773.3197" y="-49.4141" font-family="Times,serif" font-size="14.00" fill="#0000ff">Signaux d&#39;Indication</text>
</g>
<!-- plaques&#45;&gt;pind -->
<g id="edge10" class="edge">
<title>plaques&#45;&gt;pind</title>
<path fill="none" stroke="#000000" d="M747.0937,-73.9308C749.383,-72.1573 751.8593,-70.239 754.3448,-68.3136"/>
<polygon fill="#000000" stroke="#000000" points="756.8099,-70.8313 762.5719,-61.9402 752.523,-65.2975 756.8099,-70.8313"/>
</g>
<!-- potr -->
<g id="node12" class="node">
<title>potr</title>
<text text-anchor="middle" x="765.2266" y="-103.1194" font-family="Times,serif" font-size="14.00" fill="#000000">Signaux divers</text>
</g>
<!-- plaques&#45;&gt;potr -->
<g id="edge11" class="edge">
<title>plaques&#45;&gt;potr</title>
<path fill="none" stroke="#000000" d="M745.9871,-90.8476C746.5557,-91.3345 747.135,-91.8304 747.721,-92.3322"/>
<polygon fill="#000000" stroke="#000000" points="745.5166,-95.0524 755.3892,-98.8972 750.0691,-89.7349 745.5166,-95.0524"/>
</g>
<!-- Distances de frainage -->
<g id="node13" class="node">
<title>Distances de frainage</title>
<text text-anchor="middle" x="965.6778" y="-147.9682" font-family="Times,serif" font-size="14.00" fill="#000000">Distances de frainage</text>
</g>
<!-- regles&#45;&gt;Distances de frainage -->
<g id="edge12" class="edge">
<title>regles&#45;&gt;Distances de frainage</title>
<path fill="none" stroke="#000000" d="M976.9049,-175.6754C976.0854,-173.9595 975.1931,-172.0914 974.2817,-170.1829"/>
<polygon fill="#000000" stroke="#000000" points="977.2793,-168.3382 969.8113,-160.8229 970.9628,-171.355 977.2793,-168.3382"/>
</g>
<!-- Caractéristiques d&#39;un véhicule léger -->
<g id="node14" class="node">
<title>Caractéristiques d&#39;un véhicule léger</title>
<text text-anchor="middle" x="998.7628" y="-212.2251" font-family="Times,serif" font-size="14.00" fill="#000000">Caractéristiques d&#39;un véhicule léger</text>
</g>
<!-- regles&#45;&gt;Caractéristiques d&#39;un véhicule léger -->
<g id="edge13" class="edge">
<title>regles&#45;&gt;Caractéristiques d&#39;un véhicule léger</title>
<path fill="none" stroke="#000000" d="M985.5976,-192.5582C986.7549,-194.6563 988.0359,-196.9786 989.3311,-199.3265"/>
<polygon fill="#000000" stroke="#000000" points="986.2695,-201.0227 994.1642,-208.0884 992.3988,-197.6417 986.2695,-201.0227"/>
</g>
<!-- doublage -->
<g id="node15" class="node">
<title>doublage</title>
<text text-anchor="middle" x="881.4464" y="-432.6753" font-family="Times,serif" font-size="14.00" fill="#000000">Comment doubler</text>
</g>
<!-- questions&#45;&gt;doublage -->
<g id="edge14" class="edge">
<title>questions&#45;&gt;doublage</title>
<path fill="none" stroke="#000000" d="M770.8264,-404.3531C791.737,-410.5008 820.3631,-418.9169 843.2558,-425.6473"/>
<polygon fill="#000000" stroke="#000000" points="842.4174,-429.0489 852.9986,-428.5117 844.3919,-422.3331 842.4174,-429.0489"/>
</g>
<!-- Stationnement -->
<g id="node16" class="node">
<title>Stationnement</title>
<text text-anchor="middle" x="594.7377" y="-344.3205" font-family="Times,serif" font-size="14.00" fill="#000000">Stationnement</text>
</g>
<!-- questions&#45;&gt;Stationnement -->
<g id="edge15" class="edge">
<title>questions&#45;&gt;Stationnement</title>
<path fill="none" stroke="#000000" d="M716.2919,-387.603C692.5148,-379.9581 657.1487,-368.5871 630.686,-360.0787"/>
<polygon fill="#000000" stroke="#000000" points="631.6139,-356.7006 621.0225,-356.9716 629.4712,-363.3646 631.6139,-356.7006"/>
</g>
<!-- Quand doubler -->
<g id="node17" class="node">
<title>Quand doubler</title>
<text text-anchor="middle" x="911.3868" y="-407.8613" font-family="Times,serif" font-size="14.00" fill="#000000">Quand doubler</text>
</g>
<!-- doublage&#45;&gt;Quand doubler -->
<g id="edge16" class="edge">
<title>doublage&#45;&gt;Quand doubler</title>
<path fill="none" stroke="#000000" d="M891.5828,-428.4744C892.1681,-427.9893 892.7644,-427.4951 893.3677,-426.9952"/>
<polygon fill="#000000" stroke="#000000" points="895.7947,-429.5295 901.2608,-420.4535 891.3279,-424.1399 895.7947,-429.5295"/>
</g>
<!-- Où doubler -->
<g id="node18" class="node">
<title>Où doubler</title>
<text text-anchor="middle" x="846.8923" y="-457.4884" font-family="Times,serif" font-size="14.00" fill="#000000">Où doubler</text>
</g>
<!-- doublage&#45;&gt;Où doubler -->
<g id="edge17" class="edge">
<title>doublage&#45;&gt;Où doubler</title>
<path fill="none" stroke="#000000" d="M869.7479,-445.2759C868.8473,-445.9226 867.924,-446.5856 866.9894,-447.2567"/>
<polygon fill="#000000" stroke="#000000" points="864.6598,-444.6206 858.5786,-453.2964 868.7429,-450.3065 864.6598,-444.6206"/>
</g>
<!-- Quand stationer -->
<g id="node21" class="node">
<title>Quand stationer</title>
<text text-anchor="middle" x="570.5336" y="-369.1289" font-family="Times,serif" font-size="14.00" fill="#000000">Quand stationer</text>
</g>
<!-- Stationnement&#45;&gt;Quand stationer -->
<g id="edge20" class="edge">
<title>Stationnement&#45;&gt;Quand stationer</title>
<path fill="none" stroke="#000000" d="M586.5433,-356.9195C586.3856,-357.0811 586.2269,-357.2438 586.0673,-357.4074"/>
<polygon fill="#000000" stroke="#000000" points="583.1978,-355.3366 578.7196,-364.9386 588.2082,-360.225 583.1978,-355.3366"/>
</g>
<!-- Où stationer -->
<g id="node22" class="node">
<title>Où stationer</title>
<text text-anchor="middle" x="618.1857" y="-319.5117" font-family="Times,serif" font-size="14.00" fill="#000000">Où stationer</text>
</g>
<!-- Stationnement&#45;&gt;Où stationer -->
<g id="edge21" class="edge">
<title>Stationnement&#45;&gt;Où stationer</title>
<path fill="none" stroke="#000000" d="M602.6762,-340.1214C602.8289,-339.9597 602.9827,-339.797 603.1373,-339.6335"/>
<polygon fill="#000000" stroke="#000000" points="605.9302,-341.7739 610.2555,-332.1022 600.8428,-336.9656 605.9302,-341.7739"/>
</g>
<!-- Quand ne pas doubler -->
<g id="node19" class="node">
<title>Quand ne pas doubler</title>
<text text-anchor="middle" x="958.5931" y="-379.0404" font-family="Times,serif" font-size="14.00" fill="#000000">Quand ne pas doubler</text>
</g>
<!-- Quand doubler&#45;&gt;Quand ne pas doubler -->
<g id="edge18" class="edge">
<title>Quand doubler&#45;&gt;Quand ne pas doubler</title>
<path fill="none" stroke="#000000" d="M925.0409,-403.7251C928.5331,-401.5929 932.3811,-399.2437 936.1874,-396.9198"/>
<polygon fill="#000000" stroke="#000000" points="938.0951,-399.8559 944.8063,-391.6577 934.4474,-393.8814 938.0951,-399.8559"/>
</g>
<!-- Où ne pas doubler -->
<g id="node20" class="node">
<title>Où ne pas doubler</title>
<text text-anchor="middle" x="827.8533" y="-482.2903" font-family="Times,serif" font-size="14.00" fill="#000000">Où ne pas doubler</text>
</g>
<!-- Où doubler&#45;&gt;Où ne pas doubler -->
<g id="edge19" class="edge">
<title>Où doubler&#45;&gt;Où ne pas doubler</title>
<path fill="none" stroke="#000000" d="M840.4465,-470.0852C840.3225,-470.2468 840.1976,-470.4094 840.0721,-470.5729"/>
<polygon fill="#000000" stroke="#000000" points="837.6053,-468.0385 834.2924,-478.1021 843.1579,-472.301 837.6053,-468.0385"/>
</g>
<!-- Quand ne pas stationer -->
<g id="node23" class="node">
<title>Quand ne pas stationer</title>
<text text-anchor="middle" x="486.3092" y="-405.0697" font-family="Times,serif" font-size="14.00" fill="#000000">Quand ne pas stationer</text>
</g>
<!-- Quand stationer&#45;&gt;Quand ne pas stationer -->
<g id="edge22" class="edge">
<title>Quand stationer&#45;&gt;Quand ne pas stationer</title>
<path fill="none" stroke="#000000" d="M550.9992,-381.6648C540.4449,-386.1686 527.2044,-391.8186 515.4558,-396.8321"/>
<polygon fill="#000000" stroke="#000000" points="513.8534,-393.7104 506.0295,-400.8545 516.6008,-400.1488 513.8534,-393.7104"/>
</g>
<!-- Où ne pas stationer -->
<g id="node24" class="node">
<title>Où ne pas stationer</title>
<text text-anchor="middle" x="632.121" y="-294.6895" font-family="Times,serif" font-size="14.00" fill="#000000">Où ne pas stationer</text>
</g>
<!-- Où stationer&#45;&gt;Où ne pas stationer -->
<g id="edge23" class="edge">
<title>Où stationer&#45;&gt;Où ne pas stationer</title>
<path fill="none" stroke="#000000" d="M622.9036,-315.3081C622.9944,-315.1463 623.0858,-314.9836 623.1776,-314.8199"/>
<polygon fill="#000000" stroke="#000000" points="625.5646,-317.7178 627.408,-307.2845 619.4607,-314.291 625.5646,-317.7178"/>
</g>
</g>
</svg>
