<?xml version="1.0" encoding="UTF-8" standalone="no"?>
<!DOCTYPE svg PUBLIC "-//W3C//DTD SVG 1.1//EN"
 "http://www.w3.org/Graphics/SVG/1.1/DTD/svg11.dtd">
<!-- Generated by graphviz version 2.40.1 (20161225.0304)
 -->
<!-- Title: %3 Pages: 1 -->
<svg width="1557pt" height="289pt"
 viewBox="0.00 0.00 1557.43 288.80" xmlns="http://www.w3.org/2000/svg" xmlns:xlink="http://www.w3.org/1999/xlink">
<g id="graph0" class="graph" transform="scale(1 1) rotate(0) translate(4 284.8)">
<title>%3</title>
<polygon fill="#ffffff" stroke="transparent" points="-4,4 -4,-284.8 1553.4303,-284.8 1553.4303,4 -4,4"/>
<!-- permit -->
<g id="node1" class="node">
<title>permit</title>
<text text-anchor="middle" x="1015.6494" y="-268.2" font-family="Times,serif" font-size="14.00" fill="#000000">Obtenir le permit de conduire</text>
</g>
<!-- code -->
<g id="node2" class="node">
<title>code</title>
<text text-anchor="middle" x="887.6494" y="-215.4" font-family="Times,serif" font-size="14.00" fill="#00ff00">Passer le code de la route</text>
</g>
<!-- permit&#45;&gt;code -->
<g id="edge1" class="edge">
<title>permit&#45;&gt;code</title>
<path fill="none" stroke="#000000" d="M995.3674,-264.0337C974.3021,-255.3442 941.1326,-241.6618 917.1639,-231.7747"/>
<polygon fill="#000000" stroke="#000000" points="918.4156,-228.505 907.8365,-227.9272 915.7462,-234.9761 918.4156,-228.505"/>
</g>
<!-- Chréno -->
<g id="node3" class="node">
<title>Chréno</title>
<text text-anchor="middle" x="1015.6494" y="-215.4" font-family="Times,serif" font-size="14.00" fill="#000000">Chréno</text>
</g>
<!-- permit&#45;&gt;Chréno -->
<g id="edge2" class="edge">
<title>permit&#45;&gt;Chréno</title>
<path fill="none" stroke="#000000" d="M1015.6494,-263.6812C1015.6494,-256.7613 1015.6494,-246.842 1015.6494,-238.1645"/>
<polygon fill="#000000" stroke="#000000" points="1019.1495,-238.1566 1015.6494,-228.1566 1012.1495,-238.1566 1019.1495,-238.1566"/>
</g>
<!-- Circuit -->
<g id="node4" class="node">
<title>Circuit</title>
<text text-anchor="middle" x="1092.6494" y="-215.4" font-family="Times,serif" font-size="14.00" fill="#000000">Circuit</text>
</g>
<!-- permit&#45;&gt;Circuit -->
<g id="edge3" class="edge">
<title>permit&#45;&gt;Circuit</title>
<path fill="none" stroke="#000000" d="M1028.0208,-263.9168C1039.8079,-255.8342 1057.7817,-243.5093 1071.7849,-233.9071"/>
<polygon fill="#000000" stroke="#000000" points="1074.0408,-236.6041 1080.3087,-228.0622 1070.082,-230.8309 1074.0408,-236.6041"/>
</g>
<!-- plaques -->
<g id="node5" class="node">
<title>plaques</title>
<text text-anchor="middle" x="444.6494" y="-162.6" font-family="Times,serif" font-size="14.00" fill="#ffa500">Apprendre les plaques</text>
</g>
<!-- code&#45;&gt;plaques -->
<g id="edge4" class="edge">
<title>code&#45;&gt;plaques</title>
<path fill="none" stroke="#000000" d="M817.9433,-211.2919C736.0762,-201.5344 600.9041,-185.4236 517.6413,-175.4997"/>
<polygon fill="#000000" stroke="#000000" points="517.8454,-171.9994 507.5015,-174.2912 517.0169,-178.9502 517.8454,-171.9994"/>
</g>
<!-- regles -->
<g id="node6" class="node">
<title>regles</title>
<text text-anchor="middle" x="887.6494" y="-162.6" font-family="Times,serif" font-size="14.00" fill="#000000">Règles générales</text>
</g>
<!-- code&#45;&gt;regles -->
<g id="edge5" class="edge">
<title>code&#45;&gt;regles</title>
<path fill="none" stroke="#000000" d="M887.6494,-210.8812C887.6494,-203.9613 887.6494,-194.042 887.6494,-185.3645"/>
<polygon fill="#000000" stroke="#000000" points="891.1495,-185.3566 887.6494,-175.3566 884.1495,-185.3566 891.1495,-185.3566"/>
</g>
<!-- questions -->
<g id="node7" class="node">
<title>questions</title>
<text text-anchor="middle" x="1184.6494" y="-162.6" font-family="Times,serif" font-size="14.00" fill="#000000">Comprendre les questions sur le document</text>
</g>
<!-- code&#45;&gt;questions -->
<g id="edge6" class="edge">
<title>code&#45;&gt;questions</title>
<path fill="none" stroke="#000000" d="M934.3824,-211.2919C986.6697,-201.9964 1071.3902,-186.935 1127.5578,-176.9496"/>
<polygon fill="#000000" stroke="#000000" points="1128.466,-180.3431 1137.699,-175.1467 1127.2407,-173.4512 1128.466,-180.3431"/>
</g>
<!-- pdng -->
<g id="node8" class="node">
<title>pdng</title>
<text text-anchor="middle" x="53.6494" y="-109.8" font-family="Times,serif" font-size="14.00" fill="#ff0000">Signaux de Danger</text>
</g>
<!-- plaques&#45;&gt;pdng -->
<g id="edge7" class="edge">
<title>plaques&#45;&gt;pdng</title>
<path fill="none" stroke="#000000" d="M383.1255,-158.4919C310.7222,-148.7147 191.0805,-132.5585 117.6286,-122.6397"/>
<polygon fill="#000000" stroke="#000000" points="117.959,-119.1526 107.5805,-121.2828 117.0222,-126.0896 117.959,-119.1526"/>
</g>
<!-- pitr -->
<g id="node9" class="node">
<title>pitr</title>
<text text-anchor="middle" x="206.6494" y="-109.8" font-family="Times,serif" font-size="14.00" fill="#ff0000">Signaux d&#39;Interdiction</text>
</g>
<!-- plaques&#45;&gt;pitr -->
<g id="edge8" class="edge">
<title>plaques&#45;&gt;pitr</title>
<path fill="none" stroke="#000000" d="M407.2001,-158.4919C365.8214,-149.3121 299.0955,-134.509 254.091,-124.5249"/>
<polygon fill="#000000" stroke="#000000" points="254.7937,-121.0957 244.273,-122.3467 253.2775,-127.9296 254.7937,-121.0957"/>
</g>
<!-- pobl -->
<g id="node10" class="node">
<title>pobl</title>
<text text-anchor="middle" x="366.6494" y="-109.8" font-family="Times,serif" font-size="14.00" fill="#0000ff">Signaux d&#39;Obligation</text>
</g>
<!-- plaques&#45;&gt;pobl -->
<g id="edge9" class="edge">
<title>plaques&#45;&gt;pobl</title>
<path fill="none" stroke="#000000" d="M432.1174,-158.3168C420.1772,-150.2342 401.9699,-137.9093 387.7849,-128.3071"/>
<polygon fill="#000000" stroke="#000000" points="389.3935,-125.1695 379.1503,-122.4622 385.4695,-130.9663 389.3935,-125.1695"/>
</g>
<!-- pind -->
<g id="node11" class="node">
<title>pind</title>
<text text-anchor="middle" x="521.6494" y="-109.8" font-family="Times,serif" font-size="14.00" fill="#0000ff">Signaux d&#39;Indication</text>
</g>
<!-- plaques&#45;&gt;pind -->
<g id="edge10" class="edge">
<title>plaques&#45;&gt;pind</title>
<path fill="none" stroke="#000000" d="M457.0208,-158.3168C468.8079,-150.2342 486.7817,-137.9093 500.7849,-128.3071"/>
<polygon fill="#000000" stroke="#000000" points="503.0408,-131.0041 509.3087,-122.4622 499.082,-125.2309 503.0408,-131.0041"/>
</g>
<!-- potr -->
<g id="node12" class="node">
<title>potr</title>
<text text-anchor="middle" x="658.6494" y="-109.8" font-family="Times,serif" font-size="14.00" fill="#000000">Signaux divers</text>
</g>
<!-- plaques&#45;&gt;potr -->
<g id="edge11" class="edge">
<title>plaques&#45;&gt;potr</title>
<path fill="none" stroke="#000000" d="M478.5583,-158.4337C515.4988,-149.3194 574.7029,-134.712 615.0678,-124.7528"/>
<polygon fill="#000000" stroke="#000000" points="616.0287,-128.1208 624.8991,-122.3272 614.3518,-121.3246 616.0287,-128.1208"/>
</g>
<!-- Distances de frainage -->
<g id="node13" class="node">
<title>Distances de frainage</title>
<text text-anchor="middle" x="796.6494" y="-109.8" font-family="Times,serif" font-size="14.00" fill="#000000">Distances de frainage</text>
</g>
<!-- regles&#45;&gt;Distances de frainage -->
<g id="edge12" class="edge">
<title>regles&#45;&gt;Distances de frainage</title>
<path fill="none" stroke="#000000" d="M873.0287,-158.3168C858.7005,-150.0033 836.6369,-137.2015 819.9007,-127.4909"/>
<polygon fill="#000000" stroke="#000000" points="821.6399,-124.4535 811.2338,-122.4622 818.1268,-130.5082 821.6399,-124.4535"/>
</g>
<!-- Caractéristiques d&#39;un véhicule léger -->
<g id="node14" class="node">
<title>Caractéristiques d&#39;un véhicule léger</title>
<text text-anchor="middle" x="995.6494" y="-109.8" font-family="Times,serif" font-size="14.00" fill="#000000">Caractéristiques d&#39;un véhicule léger</text>
</g>
<!-- regles&#45;&gt;Caractéristiques d&#39;un véhicule léger -->
<g id="edge13" class="edge">
<title>regles&#45;&gt;Caractéristiques d&#39;un véhicule léger</title>
<path fill="none" stroke="#000000" d="M905.0015,-158.3168C922.3213,-149.8493 949.1647,-136.7259 969.1513,-126.9546"/>
<polygon fill="#000000" stroke="#000000" points="970.8938,-129.9987 978.3404,-122.4622 967.8193,-123.71 970.8938,-129.9987"/>
</g>
<!-- doublage -->
<g id="node15" class="node">
<title>doublage</title>
<text text-anchor="middle" x="1184.6494" y="-109.8" font-family="Times,serif" font-size="14.00" fill="#000000">Comment doubler</text>
</g>
<!-- questions&#45;&gt;doublage -->
<g id="edge14" class="edge">
<title>questions&#45;&gt;doublage</title>
<path fill="none" stroke="#000000" d="M1184.6494,-158.0812C1184.6494,-151.1613 1184.6494,-141.242 1184.6494,-132.5645"/>
<polygon fill="#000000" stroke="#000000" points="1188.1495,-132.5566 1184.6494,-122.5566 1181.1495,-132.5566 1188.1495,-132.5566"/>
</g>
<!-- Stationnement -->
<g id="node16" class="node">
<title>Stationnement</title>
<text text-anchor="middle" x="1337.6494" y="-109.8" font-family="Times,serif" font-size="14.00" fill="#000000">Stationnement</text>
</g>
<!-- questions&#45;&gt;Stationnement -->
<g id="edge15" class="edge">
<title>questions&#45;&gt;Stationnement</title>
<path fill="none" stroke="#000000" d="M1208.8927,-158.4337C1234.52,-149.5897 1275.1346,-135.5737 1303.8878,-125.6511"/>
<polygon fill="#000000" stroke="#000000" points="1305.2084,-128.898 1313.5195,-122.3272 1302.9248,-122.2809 1305.2084,-128.898"/>
</g>
<!-- Quand doubler -->
<g id="node17" class="node">
<title>Quand doubler</title>
<text text-anchor="middle" x="1054.6494" y="-57" font-family="Times,serif" font-size="14.00" fill="#000000">Quand doubler</text>
</g>
<!-- doublage&#45;&gt;Quand doubler -->
<g id="edge16" class="edge">
<title>doublage&#45;&gt;Quand doubler</title>
<path fill="none" stroke="#000000" d="M1164.0505,-105.6337C1142.656,-96.9442 1108.9682,-83.2618 1084.625,-73.3747"/>
<polygon fill="#000000" stroke="#000000" points="1085.734,-70.0475 1075.1519,-69.5272 1083.0998,-76.533 1085.734,-70.0475"/>
</g>
<!-- Où doubler -->
<g id="node18" class="node">
<title>Où doubler</title>
<text text-anchor="middle" x="1184.6494" y="-57" font-family="Times,serif" font-size="14.00" fill="#000000">Où doubler</text>
</g>
<!-- doublage&#45;&gt;Où doubler -->
<g id="edge17" class="edge">
<title>doublage&#45;&gt;Où doubler</title>
<path fill="none" stroke="#000000" d="M1184.6494,-105.2812C1184.6494,-98.3613 1184.6494,-88.442 1184.6494,-79.7645"/>
<polygon fill="#000000" stroke="#000000" points="1188.1495,-79.7566 1184.6494,-69.7566 1181.1495,-79.7566 1188.1495,-79.7566"/>
</g>
<!-- Quand stationer -->
<g id="node21" class="node">
<title>Quand stationer</title>
<text text-anchor="middle" x="1337.6494" y="-57" font-family="Times,serif" font-size="14.00" fill="#000000">Quand stationer</text>
</g>
<!-- Stationnement&#45;&gt;Quand stationer -->
<g id="edge20" class="edge">
<title>Stationnement&#45;&gt;Quand stationer</title>
<path fill="none" stroke="#000000" d="M1337.6494,-105.2812C1337.6494,-98.3613 1337.6494,-88.442 1337.6494,-79.7645"/>
<polygon fill="#000000" stroke="#000000" points="1341.1495,-79.7566 1337.6494,-69.7566 1334.1495,-79.7566 1341.1495,-79.7566"/>
</g>
<!-- Où stationer -->
<g id="node22" class="node">
<title>Où stationer</title>
<text text-anchor="middle" x="1473.6494" y="-57" font-family="Times,serif" font-size="14.00" fill="#000000">Où stationer</text>
</g>
<!-- Stationnement&#45;&gt;Où stationer -->
<g id="edge21" class="edge">
<title>Stationnement&#45;&gt;Où stationer</title>
<path fill="none" stroke="#000000" d="M1359.199,-105.6337C1381.6804,-96.9056 1417.1371,-83.1401 1442.6293,-73.2431"/>
<polygon fill="#000000" stroke="#000000" points="1444.1452,-76.4091 1452.2006,-69.5272 1441.6118,-69.8837 1444.1452,-76.4091"/>
</g>
<!-- Quand ne pas doubler -->
<g id="node19" class="node">
<title>Quand ne pas doubler</title>
<text text-anchor="middle" x="1034.6494" y="-4.2" font-family="Times,serif" font-size="14.00" fill="#000000">Quand ne pas doubler</text>
</g>
<!-- Quand doubler&#45;&gt;Quand ne pas doubler -->
<g id="edge18" class="edge">
<title>Quand doubler&#45;&gt;Quand ne pas doubler</title>
<path fill="none" stroke="#000000" d="M1051.3468,-52.4812C1048.6674,-45.4075 1044.8008,-35.1996 1041.463,-26.3879"/>
<polygon fill="#000000" stroke="#000000" points="1044.7059,-25.0684 1037.8905,-16.9566 1038.1598,-27.548 1044.7059,-25.0684"/>
</g>
<!-- Où ne pas doubler -->
<g id="node20" class="node">
<title>Où ne pas doubler</title>
<text text-anchor="middle" x="1184.6494" y="-4.2" font-family="Times,serif" font-size="14.00" fill="#000000">Où ne pas doubler</text>
</g>
<!-- Où doubler&#45;&gt;Où ne pas doubler -->
<g id="edge19" class="edge">
<title>Où doubler&#45;&gt;Où ne pas doubler</title>
<path fill="none" stroke="#000000" d="M1184.6494,-52.4812C1184.6494,-45.5613 1184.6494,-35.642 1184.6494,-26.9645"/>
<polygon fill="#000000" stroke="#000000" points="1188.1495,-26.9566 1184.6494,-16.9566 1181.1495,-26.9566 1188.1495,-26.9566"/>
</g>
<!-- Quand ne pas stationer -->
<g id="node23" class="node">
<title>Quand ne pas stationer</title>
<text text-anchor="middle" x="1337.6494" y="-4.2" font-family="Times,serif" font-size="14.00" fill="#000000">Quand ne pas stationer</text>
</g>
<!-- Quand stationer&#45;&gt;Quand ne pas stationer -->
<g id="edge22" class="edge">
<title>Quand stationer&#45;&gt;Quand ne pas stationer</title>
<path fill="none" stroke="#000000" d="M1337.6494,-52.4812C1337.6494,-45.5613 1337.6494,-35.642 1337.6494,-26.9645"/>
<polygon fill="#000000" stroke="#000000" points="1341.1495,-26.9566 1337.6494,-16.9566 1334.1495,-26.9566 1341.1495,-26.9566"/>
</g>
<!-- Où ne pas stationer -->
<g id="node24" class="node">
<title>Où ne pas stationer</title>
<text text-anchor="middle" x="1493.6494" y="-4.2" font-family="Times,serif" font-size="14.00" fill="#000000">Où ne pas stationer</text>
</g>
<!-- Où stationer&#45;&gt;Où ne pas stationer -->
<g id="edge23" class="edge">
<title>Où stationer&#45;&gt;Où ne pas stationer</title>
<path fill="none" stroke="#000000" d="M1476.952,-52.4812C1479.6314,-45.4075 1483.498,-35.1996 1486.8358,-26.3879"/>
<polygon fill="#000000" stroke="#000000" points="1490.139,-27.548 1490.4083,-16.9566 1483.5929,-25.0684 1490.139,-27.548"/>
</g>
</g>
</svg>
